<?xml version="1.0" encoding="UTF-8" standalone="no"?>
<!-- Created with Inkscape (http://www.inkscape.org/) -->

<svg
   version="1.1"
   width="465.23099"
   height="100"
   id="svg28401"
   sodipodi:docname="hamburg-skyline.svg"
   inkscape:version="1.3.2 (091e20e, 2023-11-25)"
   xmlns:inkscape="http://www.inkscape.org/namespaces/inkscape"
   xmlns:sodipodi="http://sodipodi.sourceforge.net/DTD/sodipodi-0.dtd"
   xmlns="http://www.w3.org/2000/svg"
   xmlns:svg="http://www.w3.org/2000/svg"
   xmlns:rdf="http://www.w3.org/1999/02/22-rdf-syntax-ns#"
   xmlns:cc="http://creativecommons.org/ns#"
   xmlns:dc="http://purl.org/dc/elements/1.1/">
  <sodipodi:namedview
     id="namedview1"
     pagecolor="#ffffff"
     bordercolor="#000000"
     borderopacity="0.25"
     inkscape:showpageshadow="2"
     inkscape:pageopacity="0.0"
     inkscape:pagecheckerboard="0"
     inkscape:deskcolor="#d1d1d1"
     inkscape:zoom="1.5497678"
     inkscape:cx="232.29286"
     inkscape:cy="49.684863"
     inkscape:window-width="1312"
     inkscape:window-height="449"
     inkscape:window-x="206"
     inkscape:window-y="25"
     inkscape:window-maximized="0"
     inkscape:current-layer="svg28401" />
  <defs
     id="defs28403" />
  <metadata
     id="metadata28406">
    <rdf:RDF>
      <cc:Work
         rdf:about="">
        <dc:format>image/svg+xml</dc:format>
        <dc:type
           rdf:resource="http://purl.org/dc/dcmitype/StillImage" />
      </cc:Work>
    </rdf:RDF>
  </metadata>
  <path
     d="M 0.6 84.1972 L 10.1937 84.1972 L 8.13125 81.8847 L 7.2875 81.6347 L 7.2875 81.4785 L 7.6625 81.4785 L 4.975 78.1972 L 6.1 78.2909 L 6.1 77.7284 L 5.7875 77.6034 L 5.7875 77.0097 L 6.06875 76.9472 L 6.38125 77.0722 L 6.475 77.2284 L 6.475 77.7284 L 6.31875 77.7596 L 6.31875 78.2596 L 7.56875 78.3846 L 7.6625 66.9784 L 7.975 67.0097 L 7.975 67.4784 L 8.75625 67.7909 L 9.88125 67.7597 L 9.475 68.416 L 10.0062 68.9785 L 8.9125 68.8848 L 7.72814 68.5205 L 7.66342 75.4946 L 7.7862 78.3772 L 18.8812 79.5098 L 18.9125 77.3535 L 16.5687 77.1035 L 19.0687 75.1035 L 23.1625 75.3535 L 23.2875 73.3223 L 22.2562 73.166 L 22.225 73.0097 L 23.725 71.9159 L 30.1312 71.7909 L 29.7562 69.8222 L 29.0062 69.6034 L 31.8812 68.9159 L 31.9437 68.6659 L 32.2875 68.6659 L 32.35 68.8847 L 33.2875 68.9472 L 33.2875 68.0409 L 33.3187 67.8847 L 32.8187 67.6972 L 32.9437 67.4159 L 34.0375 67.7909 L 34.5062 68.0409 L 34.5062 68.1659 L 34.1312 68.1659 L 33.85 68.0722 L 33.85 68.8535 L 36.475 69.0722 L 36.6312 67.2285 L 35.35 67.166 L 35.3187 66.9785 L 36.6312 66.9785 L 36.8812 65.416 L 37.1937 65.5097 L 37.0687 65.7284 L 36.8812 66.9784 L 38.1625 67.1659 L 38.1625 67.3222 L 36.9125 67.2285 L 36.7875 69.166 L 38.0062 69.291 L 40.5375 70.2285 L 40.6937 70.4785 L 40.7562 70.9472 L 42.2562 71.1035 L 49.475 73.416 L 49.5375 73.6347 L 49.35 73.6659 L 49.35 74.7597 L 54.475 75.0409 L 55.8187 75.7284 L 55.7875 75.8534 L 54.5375 75.7597 L 54.5375 76.6347 L 55.1625 76.8535 L 55.225 77.541 L 56.9437 77.916 L 57.1937 78.166 L 56.6312 78.1972 L 56.725 79.5722 L 57.0375 79.6659 L 57.0375 79.9159 L 57.5687 80.3846 L 57.725 80.7596 L 57.7562 80.9784 L 56.6312 81.0096 L 56.4125 81.2596 L 56.5062 81.9783 L 56.9125 81.9471 L 58.8187 82.2284 L 58.9437 82.3846 L 58.9437 82.7596 L 59.0062 83.3534 L 58.8187 83.6034 L 58.5375 84.1971 L 62.2875 84.1971 L 67.35 78.2909 L 69.0375 78.2909 L 69.475 77.4784 L 71.1625 77.3221 L 71.1625 78.1034 L 76.3812 78.0722 L 75.85 78.5409 L 89.5687 78.4472 L 83.6937 84.1972 L 91.975 84.1972 L 91.975 62.6347 L 92.8187 62.6347 L 92.8187 59.1035 L 97.6312 59.1035 L 97.6312 60.4472 L 98.9125 60.4472 L 98.9125 62.6347 L 101.1 62.6347 L 101.1 84.1972 L 103.35 84.1972 L 103.35 82.166 L 103.162 82.0723 L 103.162 78.916 L 103.569 78.666 L 104.381 74.8535 L 104.506 74.7285 L 104.662 73.7285 L 104.819 74.7285 L 104.944 74.8535 L 105.756 78.666 L 106.162 78.916 L 106.162 82.0723 L 105.975 82.166 L 105.975 84.1972 L 108.725 84.1972 L 108.725 66.6347 L 109.412 66.6347 L 109.412 64.166 L 110.35 64.166 L 113.131 65.7597 L 113.131 64.4472 L 113.537 64.4472 L 117.506 66.291 L 117.506 67.5097 L 118.1 67.5097 L 118.1 84.1972 L 120.506 84.1972 L 120.506 56.9785 L 121.069 56.9785 L 121.069 55.6972 L 120.756 55.6035 L 120.756 54.291 L 122.1 54.291 L 128.069 48.291 L 134.006 54.291 L 135.35 54.291 L 135.35 55.6035 L 135.037 55.6972 L 135.037 56.9785 L 135.6 56.9785 L 135.6 77.9472 L 139.475 77.5097 L 139.537 77.3847 L 142.194 66.6972 L 142.444 58.2597 L 143.256 56.8847 L 144.444 57.7597 L 144.694 66.5097 L 147.225 76.6972 L 170.069 75.1972 L 173.6 63.6659 L 173.881 54.7597 L 173.912 53.0722 L 175.037 52.0097 L 176.412 53.2284 L 176.725 63.8222 L 180.1 75.1034 L 186.85 75.2284 L 186.85 72.7597 L 186.506 72.1347 L 187.037 71.9784 L 187.037 70.0097 L 187.35 70.0097 L 187.35 67.9159 L 188.1 67.9159 L 188.225 67.3847 L 188.069 67.1972 L 188.287 66.4159 L 188.444 65.8534 L 188.787 65.8534 L 189.131 64.2597 L 189.475 65.8534 L 189.787 65.8534 L 190.225 67.2284 L 190.131 67.4472 L 190.131 67.8534 L 192.694 67.8534 L 209.756 67.8534 L 210.131 67.2284 L 212.6 67.2284 L 212.6 58.9159 L 211.975 58.2909 L 212.069 57.9472 L 212.881 57.7284 L 212.881 52.3534 L 212.381 52.0722 L 212.944 51.4784 L 212.944 50.6034 L 212.944 49.7284 L 213.444 46.9472 L 213.787 49.5722 L 214.975 45.4159 L 214.631 44.1347 L 214.631 43.3534 L 214.787 42.1347 L 214.537 41.9159 L 215.006 41.0409 L 215.069 38.1659 L 215.319 38.1972 L 215.662 40.9472 L 215.975 40.7597 L 215.944 38.1972 L 216.631 37.2909 L 217.038 32.9784 L 217.413 37.2909 L 218.131 38.1972 L 218.069 40.7597 L 218.381 40.9472 L 218.725 38.1972 L 219.006 38.1659 L 219.037 41.0409 L 219.537 41.9159 L 219.256 42.1347 L 219.444 43.3534 L 219.444 44.1347 L 219.1 45.4159 L 220.256 49.5722 L 220.631 46.9472 L 221.1 49.7284 L 221.1 50.6034 L 221.1 51.4784 L 221.694 52.0722 L 221.162 52.3534 L 221.162 57.7284 L 222.006 57.9472 L 222.069 58.2909 L 221.444 58.9159 L 221.444 67.2284 L 223.944 67.2284 L 224.287 67.8534 L 241.35 67.8534 L 243.912 67.8534 L 243.944 67.4472 L 243.819 67.2284 L 244.287 65.8534 L 244.6 65.8534 L 244.912 64.2597 L 245.287 65.8534 L 245.631 65.8534 L 245.787 66.4159 L 245.975 67.1972 L 245.819 67.3847 L 245.975 67.9159 L 246.694 67.9159 L 246.694 70.0097 L 247.037 70.0097 L 247.037 71.9784 L 247.569 72.1347 L 247.225 72.7597 L 247.225 76.3847 L 247.694 77.2284 L 247.694 80.7909 L 247.475 81.1972 L 247.475 84.1972 L 251.194 84.1972 L 251.194 73.6347 L 250.569 72.4784 L 250.569 71.3847 L 251.412 71.3847 L 251.412 66.4472 L 251.1 65.9159 L 251.1 63.9784 L 252.287 63.9784 L 252.287 58.2284 L 252.131 58.1347 L 252.131 55.4784 L 254.912 53.3222 L 255.412 51.1972 L 255.412 48.4472 L 251.881 48.4472 L 252.506 47.4784 L 251.944 46.4784 L 256.037 46.4784 L 256.037 51.1347 L 256.569 53.3222 L 259.35 55.4784 L 259.35 58.1347 L 259.194 58.2284 L 259.194 63.9784 L 260.381 63.9784 L 260.381 65.9159 L 260.069 66.4472 L 260.069 71.3847 L 260.912 71.3847 L 260.912 72.4784 L 260.287 73.6347 L 260.287 84.1972 L 266.069 84.1972 L 266.756 56.7597 L 264.194 55.1972 L 263.225 54.1347 L 263.162 52.9472 L 265.131 52.4159 L 266.819 52.4159 L 266.819 49.1972 L 262.1 47.4472 L 262.1 45.3847 L 266.694 45.2909 L 267.225 25.6972 L 266.506 25.6972 L 266.506 24.6347 L 267.225 24.6347 L 267.35 18.4159 L 266.85 18.4159 L 266.85 17.3534 L 267.381 17.3534 L 267.537 11.4472 L 268.756 11.4472 L 268.756 11.4472 L 268.913 17.3534 L 269.475 17.3534 L 269.475 18.4159 L 268.944 18.4159 L 269.069 24.6347 L 269.788 24.6347 L 269.788 25.6972 L 269.069 25.6972 L 269.6 45.2909 L 274.225 45.3847 L 274.225 47.4472 L 269.475 49.1972 L 269.475 52.4159 L 271.162 52.4159 L 273.162 52.9472 L 273.069 54.1347 L 272.1 55.1972 L 269.569 56.7597 L 270.069 84.1972 L 274.631 84.1972 L 274.631 64.8847 L 286.1 62.5409 L 294.631 57.9784 L 307.662 48.7284 L 314.787 52.8222 L 314.787 82.5722 L 314.787 84.1972 L 317.819 84.1972 L 317.819 78.5722 L 318.319 77.7284 L 318.319 76.3222 L 318.225 76.291 L 319.537 75.3847 L 319.537 75.2597 L 320.194 75.1347 L 320.256 75.1347 L 320.944 75.2597 L 320.944 75.3847 L 322.256 76.291 L 322.162 76.3222 L 322.162 77.7284 L 323.881 77.7284 L 323.881 75.9784 L 324.069 75.6347 L 324.069 74.7597 L 324.069 74.4784 L 324.6 73.6659 L 327.537 72.4472 L 330.475 73.6659 L 331.037 74.4784 L 331.037 74.7597 L 331.037 75.6347 L 331.225 75.9784 L 331.225 77.7284 L 332.944 77.7284 L 332.944 76.3222 L 332.85 76.291 L 334.163 75.3847 L 334.163 75.2597 L 334.819 75.1347 L 334.881 75.1347 L 335.569 75.2597 L 335.569 75.3847 L 336.881 76.291 L 336.788 76.3222 L 336.788 77.7284 L 338.163 77.7284 L 338.163 76.3222 L 338.069 76.291 L 339.381 75.3847 L 339.381 75.2597 L 340.038 75.1347 L 340.1 75.1347 L 340.788 75.2597 L 340.788 75.3847 L 342.1 76.291 L 342.006 76.3222 L 342.006 77.7284 L 343.944 77.7284 L 343.944 75.9784 L 343.6 75.9784 L 343.6 75.7909 L 345.663 75.7909 L 345.663 77.1972 L 346.038 77.1972 L 347.1 75.6659 L 347.85 75.3847 L 348.913 74.8534 L 348.975 74.8534 L 350.069 75.3847 L 350.788 75.6659 L 351.444 76.6034 L 351.444 64.4472 L 351.538 64.2597 L 351.788 63.7284 L 352.038 63.7284 L 352.319 64.3847 L 352.569 64.3847 L 352.975 64.291 L 352.975 61.7285 L 352.913 61.6347 L 352.913 61.3847 L 354.538 58.3535 L 354.569 57.9472 L 354.288 57.7597 L 354.35 57.4785 L 354.444 57.4785 L 355.069 57.4785 L 355.194 57.4785 L 355.225 57.7597 L 354.944 57.9472 L 354.975 58.3535 L 356.631 61.3847 L 356.631 61.6347 L 356.537 61.7285 L 356.537 64.291 L 356.944 64.3847 L 357.225 64.3847 L 357.475 63.7284 L 357.725 63.7284 L 358.006 64.2597 L 358.069 64.4472 L 358.069 79.6659 L 358.412 79.6971 L 358.662 81.5721 L 358.662 82.6659 L 359.1 83.4471 L 359.1 84.1971 L 361.194 84.1971 L 361.287 81.5409 L 361.162 81.2909 L 361.162 81.1346 L 363.912 81.0721 L 363.912 70.7284 L 365.069 70.7284 L 365.069 69.1971 L 364.85 68.9784 L 364.85 68.7596 L 375.225 68.7596 L 375.225 68.9784 L 375.006 69.1971 L 375.006 70.7284 L 376.162 70.7284 L 376.162 81.0721 L 378.912 81.1346 L 378.912 81.2909 L 378.787 81.5409 L 378.881 84.1971 L 382.037 84.1971 L 382.037 73.7909 L 381.444 73.3221 L 381.444 71.8221 L 381.756 70.9471 L 381.756 66.5409 L 381.069 65.6346 L 381.444 64.5409 L 381.444 58.6034 L 382.881 58.6034 L 382.881 55.2284 L 383.6 55.2284 L 383.787 55.7596 L 384.287 55.7596 L 385.006 51.5409 L 385.35 51.4784 L 386.475 44.3846 L 387.6 51.4784 L 387.944 51.5409 L 388.662 55.7596 L 389.162 55.7596 L 389.35 55.2284 L 390.069 55.2284 L 390.069 58.6034 L 391.506 58.6034 L 391.506 64.5409 L 391.912 65.6346 L 391.194 66.5409 L 391.194 70.9471 L 391.506 71.8221 L 391.506 73.3221 L 390.912 73.7909 L 390.912 84.1971 L 394.381 84.1971 L 394.381 84.0096 L 394.381 78.7596 L 395.694 78.7596 L 395.694 68.8534 L 396.225 68.8534 L 396.225 66.1346 L 400.256 61.8221 L 404.287 66.1346 L 404.287 68.9159 L 405.037 68.9159 L 405.037 76.5409 L 406.944 77.6346 L 407.631 76.9471 L 409.037 76.1346 L 410.162 76.1346 L 410.944 76.9159 L 413.662 76.9159 L 413.662 80.4471 L 415.194 81.3534 L 415.194 84.1971 L 419.131 84.1971 L 419.131 77.2284 L 416.319 74.9471 L 416.288 74.6659 L 416.35 74.6347 L 416.288 74.5722 L 416.381 74.5722 L 419.944 70.7597 L 419.975 70.7285 L 420.006 70.6348 L 420.069 70.6036 L 420.1 70.5724 L 420.162 70.5724 L 457.975 70.6661 L 458.006 70.6661 L 458.069 70.6973 L 458.162 70.791 L 458.193 70.8535 L 458.193 70.8847 L 461.756 74.5722 L 461.818 74.5722 L 461.787 74.6347 L 461.912 74.7597 L 461.912 75.0097 L 459.319 77.0722 L 459.319 84.1972 L 464.631 84.1972 M 175.194 65.3534 L 172.35 75.1347 L 177.881 75.1035 L 175.194 65.3535 L 175.194 65.3534 M 143.506 68.8534 L 142.569 73.0722 L 141.694 77.2909 L 145.194 76.9159 L 143.506 68.8534 M 178.288 77.1655 L 172.131 77.1967 L 175.1 81.2279 L 175.225 81.1967 L 178.131 77.353 L 178.288 77.1655 L 178.288 77.1655 M 180.413 77.1967 L 176.944 81.9779 L 176.663 83.1029 L 176.569 84.1967 L 186.569 84.1967 L 186.569 81.1967 L 186.35 80.7904 L 186.35 77.3217 L 180.413 77.1967 L 180.413 77.1967 M 169.756 77.2592 L 146.944 78.2592 L 144.694 81.9779 L 144.538 84.1967 L 173.569 84.1967 L 173.475 82.3217 L 169.756 77.2597 L 169.756 77.2592 M 144.788 78.4154 L 142.256 78.6342 L 143.506 80.9467 L 144.788 78.4154 M 104.663 78.6967 L 103.506 80.3842 L 105.85 80.3842 L 105.725 80.2592 L 104.663 78.6967 M 140.288 78.7904 L 135.6 79.2591 L 135.6 84.1966 L 142.381 84.1966 L 142.256 81.9779 L 140.288 78.7904 M 104.663 79.4466 L 105.038 79.8216 L 104.663 80.1966 L 104.288 79.8216 L 104.663 79.4466 L 104.663 79.4466"
     id="rect22130"
     style="fill:none;stroke:#000000;stroke-width:1;stroke-linecap:round;stroke-linejoin:round;stroke-miterlimit:4;stroke-dasharray:none" />
</svg>
